<?xml version="1.0" encoding="utf-8"?>
<!-- Generator: Adobe Illustrator 23.0.3, SVG Export Plug-In . SVG Version: 6.00 Build 0)  -->
<svg version="1.1" id="Layer_1" xmlns="http://www.w3.org/2000/svg" xmlns:xlink="http://www.w3.org/1999/xlink" x="0px" y="0px"
	 viewBox="0 0 100 100" style="enable-background:new 0 0 100 100;" xml:space="preserve">
<style type="text/css">
	.st0{fill:#FFFFFF;}
</style>
<g>
	<g transform="translate(50 50) scale(0.69 0.69) rotate(0) translate(-50 -50)">
		<path class="st0" d="M28.12,69.99c1.24,5.19,4.05,9.78,8.13,13.28c2.13,1.81,3.3,4.22,3.3,6.78c0,2.73,2.22,4.95,4.95,4.95h23.64
			c2.73,0,4.95-2.22,4.95-4.95v-0.48c0-1.8,0.7-3.52,1.92-4.73c3.4-3.36,5.14-7.6,5.49-13.42l0.48-22.65
			c0.13-2.42-1.72-5.77-4.29-6.46c-0.67-0.18-1.33-0.27-1.97-0.27c-1.33,0-2.47,0.38-3.42,0.94c-0.91-1.85-2.92-3.23-5.18-3.37
			l-1.17-0.08l-0.17,0c-1.69,0-3.02,0.83-3.97,1.75c-1.22-1.83-3.52-2.98-5.55-2.98c-0.09,0-0.18,0-0.28,0.01l-0.9,0.05
			c-0.85,0.05-1.73,0.3-2.54,0.72l-0.08-3.52c5.48-2.72,8.98-8.29,8.98-14.44c0-1.53-0.22-3.05-0.64-4.5
			c-0.23-0.8-1.06-1.26-1.86-1.02c-0.79,0.23-1.25,1.06-1.02,1.86c0.34,1.19,0.52,2.42,0.52,3.67c0,4.52-2.32,8.66-6.06,11.05
			l-0.22-9.53c0-0.04,0-0.08-0.01-0.12c-0.33-3.98-3.39-6.44-6.04-6.44c-0.08,0-0.17,0-0.21,0l-1.33,0.05
			c-3.2,0.18-5.85,3.85-5.78,6.65l-0.16,9.64c-1.57-0.93-2.94-2.19-4.01-3.69c-0.48-0.67-1.42-0.83-2.09-0.35
			c-0.67,0.48-0.83,1.42-0.35,2.09c1.64,2.31,3.85,4.13,6.4,5.31l-0.35,21.08l-3.86-7.88c-0.03-0.06-0.06-0.11-0.09-0.16
			c-1.8-2.95-5.06-4.79-8.52-4.79c-1.63,0-3.25,0.41-4.69,1.18c-0.9,0.48-1.29,1.56-0.91,2.51L28.12,69.99z M24.76,48.02
			c2.08,0,3.96,1.04,5.06,2.79l5.49,11.21c0.7,1.43,2.46,2.18,3.98,1.68c1.94-0.63,1.89-2.67,1.88-3.31l0.62-37.64
			c-0.03-1.06,1.25-2.59,1.96-2.63l1.36-0.05c0.63,0,1.88,0.93,2.05,2.72l0.53,23.04c0.02,1,0.78,1.83,1.78,1.94
			c0.99,0.11,1.92-0.53,2.16-1.5l0.43-1.71c0.04-0.15,0.06-0.3,0.06-0.45c0.01-0.75,1.2-1.7,2.18-1.76l0.96-0.05
			c1.08,0,2.33,0.97,2.4,1.65c0.01,0.11,0.03,0.22,0.06,0.33l0.58,2.11c0.17,0.64,0.65,1.15,1.28,1.36c0.21,0.07,0.48,0.12,0.7,0.12
			c0.88,0,2-0.47,2.47-2.64c0.37-0.6,1.23-1.7,2-1.7l1.12,0.08c0.99,0.06,1.94,0.81,1.96,1.57l0.1,2.28
			c0.04,0.92,0.71,1.68,1.61,1.86c0.9,0.18,1.82-0.29,2.21-1.12c0.04-0.09,1.03-2.15,2.97-2.15c0.29,0,0.61,0.04,0.93,0.13
			c0.46,0.13,1.38,1.51,1.33,2.45L76.5,71.26c-0.28,4.7-1.65,8.11-4.3,10.73c-1.98,1.95-3.11,4.71-3.11,7.58v0.48
			c0,0.52-0.43,0.95-0.95,0.95H44.5c-0.52,0-0.95-0.43-0.95-0.95c0-3.7-1.72-7.28-4.7-9.82c-3.47-2.97-5.84-6.88-6.87-11.3
			c-0.02-0.1-0.05-0.2-0.09-0.29l-8.25-20.52C24.01,48.05,24.39,48.02,24.76,48.02z"/>
		<path class="st0" d="M30.2,26.41c0.13,0,0.26-0.02,0.39-0.05c0.8-0.21,1.27-1.04,1.06-1.84c-0.3-1.1-0.45-2.25-0.45-3.41
			C31.21,13.88,37.09,8,44.33,8c4.22,0,8.21,2.05,10.67,5.49c0.48,0.67,1.42,0.83,2.09,0.35s0.83-1.42,0.35-2.09
			C54.42,7.52,49.52,5,44.33,5c-8.89,0-16.12,7.23-16.12,16.11c0,1.42,0.18,2.83,0.55,4.18C28.93,25.96,29.54,26.41,30.2,26.41z"/>
	</g>
</g>
</svg>
